PathFileType	4	(X/Y/Z)	..\data\2014014\dynamic\2014014_C5_04.trc
DataRate	CameraRate	NumFrames	NumMarkers	Units	OrigDataRate	OrigDataStartFrame	OrigNumFrames
100.000000	100.000000	4	52	mm	100.000000	137	157
Frame#	Time	L_IAS			L_IPS			R_IPS			R_IAS			L_FTC			L_FLE			L_FME			L_FAX			L_TTC			L_FAL			L_TAM			L_FCC			L_FM1			L_FM2			L_FM5			R_FTC			R_FLE			R_FME			R_FAX			R_TTC			R_FAL			R_TAM			R_FCC			R_FM1			R_FM2			R_FM5			CV7			TV10			SXS			SJN			L_SIA			L_SRS			L_SAA			L_SAE			L_HLE			L_HME			L_UOA			L_RSP			L_UHE			L_HM2			L_HM5			R_SIA			R_SRS			R_SAA			R_SAE			R_HLE			R_HME			R_UOA			R_RSP			R_UHE			R_HM2			R_HM5			
		X1	Y1	Z1	X2	Y2	Z2	X3	Y3	Z3	X4	Y4	Z4	X5	Y5	Z5	X6	Y6	Z6	X7	Y7	Z7	X8	Y8	Z8	X9	Y9	Z9	X10	Y10	Z10	X11	Y11	Z11	X12	Y12	Z12	X13	Y13	Z13	X14	Y14	Z14	X15	Y15	Z15	X16	Y16	Z16	X17	Y17	Z17	X18	Y18	Z18	X19	Y19	Z19	X20	Y20	Z20	X21	Y21	Z21	X22	Y22	Z22	X23	Y23	Z23	X24	Y24	Z24	X25	Y25	Z25	X26	Y26	Z26	X27	Y27	Z27	X28	Y28	Z28	X29	Y29	Z29	X30	Y30	Z30	X31	Y31	Z31	X32	Y32	Z32	X33	Y33	Z33	X34	Y34	Z34	X35	Y35	Z35	X36	Y36	Z36	X37	Y37	Z37	X38	Y38	Z38	X39	Y39	Z39	X40	Y40	Z40	X41	Y41	Z41	X42	Y42	Z42	X43	Y43	Z43	X44	Y44	Z44	X45	Y45	Z45	X46	Y46	Z46	X47	Y47	Z47	X48	Y48	Z48	X49	Y49	Z49	X50	Y50	Z50	X51	Y51	Z51	X52	Y52	Z52	

138	1.37	660.1888427734376	996.7700805664065	99.46626281738293	454.1243591308595	1013.85595703125	183.0598449707032	452.3092346191407	1007.405517578125	285.890594482422	656.1803588867189	997.154235839844	353.1238403320314	574.2210083007814	898.7527465820315	36.02483749389656	529.8340454101564	493.5076904296876	105.7825164794923	520.5794677734376	488.481903076172	242.1226806640626	501.3152160644532	432.4031372070314	104.6088943481446	567.0310058593751	415.5552978515626	159.8529663085938	447.4435119628907	63.88183975219728	139.655258178711	464.9906616210938	92.87841033935548	237.4138183593751	389.0860595703126	19.18298530578614	191.9493560791016	590.4688110351564	12.14329814910889	231.2958984375001	607.4361572265626	30.5166130065918	173.9010467529298	552.6796875000001	13.40149307250977	114.0343780517579	605.8856201171876	897.2871093750002	417.8104553222658	746.8024902343751	505.8428344726564	393.9346313476565	780.0598144531252	513.1752929687501	266.6135864257814	714.9848022460939	457.059051513672	396.0664367675784	783.8362426757815	436.8312988281251	350.3723754882814	573.1561279296876	114.0666580200196	360.2320861816407	622.4565429687501	131.4469299316407	268.7445373535157	527.9694824218751	90.08834838867189	292.277801513672	724.0713500976564	30.89150428771973	287.4519653320314	717.7702026367189	49.13422012329103	341.6238403320314	672.0380249023439	39.22777175903321	389.7753295898439	517.4750976562501	1534.9140625	233.3733673095704	419.4967041015626	1291.89013671875	222.4253082275392	688.1617431640626	1256.038696289063	235.9532775878908	642.6583251953126	1441.21728515625	244.2344818115236	406.769012451172	1326.256591796875	109.8472595214845	445.5342102050782	1467.282104492188	121.4347534179688	489.2432556152345	1469.170776367188	58.82778167724616	538.1091308593751	1467.23779296875	34.04251861572273	564.5653686523439	1133.528442382813	-77.53895568847651	521.7670898437501	1112.554443359375	8.216910362243718	529.0859375000001	1101.076904296875	-52.58263778686518	727.9587402343751	918.3845214843752	-20.32894515991202	661.4279785156251	894.0276489257815	-78.12447357177727	782.9591064453127	847.853454589844	-36.37086868286124	687.4371948242189	815.8619384765627	-85.06315612792962	392.4696655273438	1317.173095703125	335.6189575195314	446.0744018554688	1460.816040039063	352.4518432617189	480.6443786621094	1449.132202148438	420.7877197265627	526.1140136718751	1446.5546875	445.0930175781252	479.0679321289063	1114.069213867188	527.6234130859377	461.9687500000001	1101.333862304688	425.3793029785158	439.3394470214844	1096.550170898438	492.2544555664064	565.519775390625	860.9944458007815	484.0333557128908	497.2876586914063	864.951354980469	546.2797851562502	594.102294921875	768.923278808594	506.8149719238283	483.7142333984376	768.2573852539065	543.7078247070315	
139	1.38	673.2188110351564	994.452819824219	99.28920745849621	467.3455505371095	1011.753295898438	183.9307861328126	465.6241760253907	1005.505615234375	286.5736694335939	669.5260009765626	995.9620361328127	352.8334960937501	585.9747314453126	896.4134521484377	36.33481597900398	534.5591430664064	492.7652282714845	106.623764038086	525.6455078125001	487.8800354003907	242.7834777832032	505.1717224121095	431.9835510253907	105.424545288086	570.8834838867189	414.2486267089845	160.3452911376954	447.6108703613282	64.06408691406251	140.2115478515626	465.8668212890626	92.94007110595705	237.8989257812501	389.3853759765626	19.36461257934571	192.7030334472657	590.5153198242189	12.10854625701905	231.4063568115236	607.4951782226564	30.32062721252442	173.9690551757814	552.6066894531251	13.38674259185791	114.0096817016603	620.8819580078126	896.7993164062502	418.4139404296877	762.0145263671876	504.961639404297	392.4124450683596	794.3795166015627	512.6256103515626	265.2495422363283	732.3052978515626	454.4158630371095	394.5120849609377	802.4270019531252	437.7462158203126	349.8286132812502	614.7516479492189	102.1635131835938	360.3623046875001	664.0346069335939	122.8042297363282	269.533416748047	572.5755615234376	75.25101470947267	292.151824951172	771.689636230469	29.99409103393555	290.4197082519533	763.2942504882814	47.61838150024415	344.4099121093752	717.8715209960939	34.82237625122071	391.9870300292971	531.0021972656251	1533.245361328125	233.8874969482423	432.8684387207032	1290.411010742188	221.6751556396486	701.6270141601564	1254.013671875	236.2122650146486	656.3092651367189	1439.275756835938	244.8208770751955	420.9903869628907	1324.929321289063	109.047576904297	459.790008544922	1466.081298828125	120.853370666504	503.9866333007814	1467.9912109375	58.64700698852547	552.9655151367189	1466.219482421875	34.22961807250984	581.0642089843751	1133.164184570313	-78.69406127929682	537.3791503906251	1111.467041015625	6.318847656250068	545.6445922851564	1099.796142578125	-54.33573532104487	750.4378662109376	923.482360839844	-18.03916549682608	685.8707885742189	896.7338867187502	-76.7432556152343	808.0046997070315	854.729675292969	-32.73443984985342	714.3936157226564	819.3092041015627	-82.48988342285149	405.5800476074219	1315.121337890625	334.1774291992189	459.1606750488282	1458.672973632813	351.940887451172	493.2926635742188	1446.783325195313	420.4930114746095	538.6058959960939	1444.056030273438	445.0734252929689	489.0523681640626	1111.91748046875	527.2177734375002	473.2556152343751	1099.06884765625	424.4816894531252	449.9628601074219	1094.34521484375	491.0508422851564	575.7396850585938	858.5982666015627	484.3390502929689	506.3736877441407	862.5246582031252	545.513122558594	603.5083618164062	766.3220825195314	507.5781555175783	492.5093383789063	765.9318237304689	542.5640869140627	
140	1.39	686.3812255859376	991.8775634765627	99.28665161132824	480.6271972656251	1009.414245605469	184.8179321289063	479.0321044921876	1003.281616210938	287.2597656250001	682.8837280273439	994.4486083984377	352.7428283691407	597.8425903320314	893.941345214844	36.60690689086922	539.5229492187501	491.9651794433595	107.4787063598634	530.9842529296876	487.2388305664064	243.4451293945314	509.2775268554689	431.5554809570314	106.2450561523438	574.9415283203126	412.8897094726564	160.8135223388673	447.7549438476564	64.29524993896486	140.764389038086	466.8288269042969	93.04318237304689	238.393524169922	389.7145996093751	19.62623405456543	193.5284118652345	590.5308227539064	12.11858558654786	231.504104614258	607.5252685546876	30.15172767639161	174.0024261474611	552.5196533203126	13.41704654693604	113.9884185791017	635.6575317382814	895.793395996094	419.0628967285158	776.2180175781252	503.436248779297	390.7760314941409	808.0408325195315	511.3918762207032	263.7648925781252	748.8074340820314	451.3592834472657	392.8800354003909	820.1538085937502	438.2949523925782	349.3440246582033	656.7637329101564	91.36236572265626	360.690155029297	705.9164428710939	115.3473129272461	270.6027832031252	617.9635009765626	61.62044906616212	292.2290344238282	819.0545043945315	30.67540740966798	293.7921142578127	808.5960693359377	47.56198883056641	347.5731201171877	763.6440429687501	31.83393096923829	394.5781860351565	544.6223144531251	1531.313842773438	234.4159698486329	446.2962646484376	1288.711303710938	221.0070800781251	715.1520996093751	1251.714111328125	236.6128540039064	670.0618286132814	1437.073852539063	245.5131683349611	435.3415527343751	1323.259399414063	108.3033294677735	474.1467895507814	1464.642822265625	120.3078231811524	518.8858642578126	1466.548461914063	58.51547241210945	567.9892578125001	1464.912963867188	34.48464202880867	597.4036254882814	1132.615478515625	-79.82631683349604	552.8724975585939	1110.08642578125	4.333559513092109	561.9907836914064	1098.287231445313	-56.14385604858393	772.3891601562502	928.5623168945315	-15.63557147979727	710.0576171875001	899.5505981445315	-75.3252868652343	832.5294189453127	861.7554931640627	-28.93162727355947	741.0592041015626	822.9316406250002	-79.81990051269524	418.7152404785157	1312.828979492188	332.7698669433595	472.2846984863282	1456.273315429688	351.4614257812501	505.9699707031251	1444.181884765625	420.2482299804689	551.1259765625001	1441.315551757813	445.1138610839845	499.2385253906251	1109.477416992188	526.7717285156252	484.6636352539063	1096.522338867188	423.6557617187502	460.7702941894532	1091.847534179688	489.8443603515627	586.1514892578125	855.946228027344	484.7196655273439	515.61962890625	859.8379516601565	544.7622680664065	613.1224365234375	763.4920043945314	508.473602294922	501.4975280761719	763.3419189453126	541.4184570312502	
141	1.4	699.6852416992189	989.0826416015627	99.45674896240246	493.9934997558595	1006.882568359375	185.7044219970704	492.5462341308594	1000.775451660156	287.9377746582032	696.2874145507814	992.648376464844	352.8573303222658	609.8383178710939	891.3728637695315	36.83996963500985	544.7669677734376	491.1364746093751	108.3551177978517	536.6583862304689	486.5733642578126	244.1304168701173	513.6751098632814	431.1551513671876	107.0867614746095	579.2496337890626	411.5081787109376	161.2759399414063	447.8710327148439	64.6125946044922	141.3083038330079	467.8611450195313	93.2024383544922	238.9032440185548	390.0698547363282	19.99894523620606	194.4256591796876	590.5388183593751	12.18005561828614	231.577346801758	607.5468139648439	30.02208709716798	173.9905548095704	552.4268798828126	13.50372314453125	113.9698867797853	650.1801757812501	894.2739257812502	419.753143310547	789.4990844726565	501.3195800781251	388.999694824219	821.1246337890627	509.5625610351564	262.1343994140627	764.5619506835939	447.9654541015626	391.1580505371096	837.063171386719	438.5191345214845	348.8610839843752	698.8427734375001	81.86814880371095	361.2197265625002	747.7178955078126	109.2229766845703	271.917694091797	663.6959838867189	49.42227935791017	292.5195312500001	865.7772216796877	32.98837280273438	297.4607543945314	853.3321533203127	49.03723144531251	351.0101318359377	809.011413574219	30.36453819274903	397.4693298339846	558.3619384765626	1529.139770507813	234.9360809326173	459.8002319335939	1286.812255859375	220.4315795898439	728.7494506835939	1249.198852539063	237.1512603759767	683.9197998046876	1434.66015625	246.3155975341798	449.8104858398439	1321.295776367188	107.632308959961	488.6015930175782	1462.9931640625	119.8257217407227	533.9150390625001	1464.881713867188	58.45191574096688	583.1545410156251	1463.36279296875	34.81823730468758	613.5743408203126	1131.928466796875	-80.9131240844726	568.2469482421876	1108.455810546875	2.305353403091501	578.1220092773439	1096.59033203125	-57.98618698120112	793.762878417969	933.6284790039065	-13.14002704620352	733.9044189453126	902.4978637695315	-73.8727951049804	856.4649047851565	868.936462402344	-25.00265502929678	767.3562622070314	826.7527465820315	-77.08589935302726	431.8967590332032	1310.32763671875	331.4226379394532	485.4544677734376	1453.652099609375	351.0289916992189	518.6862792968751	1441.369140625	420.0640869140627	563.6844482421876	1438.381225585938	445.2252502441408	509.6559143066407	1106.785888671875	526.2837524414065	496.2186584472657	1093.743774414063	422.9011840820314	471.7851562500001	1089.107177734375	488.6450500488283	596.7366333007812	853.062927246094	485.1544799804689	525.0418701171875	856.9349365234377	544.0239868164065	622.9328002929688	760.4598999023439	509.4630432128908	510.6851196289063	760.5284423828126	540.2749633789065	
